solid L_Wall
  facet normal 0.000000 -1.000000 0.000000
    outer loop
      vertex -500.000000 2000.000000 0.000000
      vertex 2000.000000 2000.000000 0.000000
      vertex -500.000000 2000.000000 2000.000000
    endloop
  endfacet
  facet normal 0.000000 -1.000000 0.000000
    outer loop
      vertex -500.000000 2000.000000 2000.000000
      vertex 2000.000000 2000.000000 0.000000
      vertex 2000.000000 2000.000000 2000.000000
    endloop
  endfacet
  facet normal 0.000000 -1.000000 0.000000
    outer loop
      vertex 2000.000000 -500.000000 0.000000
      vertex 2500.000000 -500.000000 0.000000
      vertex 2000.000000 -500.000000 2000.000000
    endloop
  endfacet
  facet normal 0.000000 -1.000000 0.000000
    outer loop
      vertex 2000.000000 -500.000000 2000.000000
      vertex 2500.000000 -500.000000 0.000000
      vertex 2500.000000 -500.000000 2000.000000
    endloop
  endfacet
  facet normal -1.000000 0.000000 0.000000
    outer loop
      vertex 2000.000000 2000.000000 0.000000
      vertex 2000.000000 -500.000000 0.000000
      vertex 2000.000000 2000.000000 2000.000000
    endloop
  endfacet
  facet normal -1.000000 -0.000000 0.000000
    outer loop
      vertex 2000.000000 2000.000000 2000.000000
      vertex 2000.000000 -500.000000 0.000000
      vertex 2000.000000 -500.000000 2000.000000
    endloop
  endfacet
  facet normal 1.000000 0.000000 0.000000
    outer loop
      vertex 2500.000000 -500.000000 0.000000
      vertex 2500.000000 2500.000000 0.000000
      vertex 2500.000000 -500.000000 2000.000000
    endloop
  endfacet
  facet normal 1.000000 -0.000000 0.000000
    outer loop
      vertex 2500.000000 -500.000000 2000.000000
      vertex 2500.000000 2500.000000 0.000000
      vertex 2500.000000 2500.000000 2000.000000
    endloop
  endfacet
  facet normal 0.000000 1.000000 -0.000000
    outer loop
      vertex 2500.000000 2500.000000 0.000000
      vertex -500.000000 2500.000000 0.000000
      vertex 2500.000000 2500.000000 2000.000000
    endloop
  endfacet
  facet normal 0.000000 1.000000 0.000000
    outer loop
      vertex 2500.000000 2500.000000 2000.000000
      vertex -500.000000 2500.000000 0.000000
      vertex -500.000000 2500.000000 2000.000000
    endloop
  endfacet
  facet normal -1.000000 0.000000 0.000000
    outer loop
      vertex -500.000000 2500.000000 0.000000
      vertex -500.000000 2000.000000 0.000000
      vertex -500.000000 2500.000000 2000.000000
    endloop
  endfacet
  facet normal -1.000000 -0.000000 0.000000
    outer loop
      vertex -500.000000 2500.000000 2000.000000
      vertex -500.000000 2000.000000 0.000000
      vertex -500.000000 2000.000000 2000.000000
    endloop
  endfacet
  facet normal 0.000000 0.000000 -1.000000
    outer loop
      vertex 2000.000000 -500.000000 0.000000
      vertex 2000.000000 2000.000000 0.000000
      vertex 2500.000000 -500.000000 0.000000
    endloop
  endfacet
  facet normal 0.000000 0.000000 -1.000000
    outer loop
      vertex -500.000000 2500.000000 0.000000
      vertex 2000.000000 2000.000000 0.000000
      vertex -500.000000 2000.000000 0.000000
    endloop
  endfacet
  facet normal 0.000000 0.000000 -1.000000
    outer loop
      vertex 2000.000000 2000.000000 0.000000
      vertex 2500.000000 2500.000000 0.000000
      vertex 2500.000000 -500.000000 0.000000
    endloop
  endfacet
  facet normal 0.000000 0.000000 -1.000000
    outer loop
      vertex -500.000000 2500.000000 0.000000
      vertex 2500.000000 2500.000000 0.000000
      vertex 2000.000000 2000.000000 0.000000
    endloop
  endfacet
  facet normal 0.000000 0.000000 1.000000
    outer loop
      vertex 2000.000000 2000.000000 2000.000000
      vertex 2000.000000 -500.000000 2000.000000
      vertex 2500.000000 -500.000000 2000.000000
    endloop
  endfacet
  facet normal 0.000000 0.000000 1.000000
    outer loop
      vertex 2000.000000 2000.000000 2000.000000
      vertex -500.000000 2500.000000 2000.000000
      vertex -500.000000 2000.000000 2000.000000
    endloop
  endfacet
  facet normal 0.000000 0.000000 1.000000
    outer loop
      vertex 2500.000000 2500.000000 2000.000000
      vertex 2000.000000 2000.000000 2000.000000
      vertex 2500.000000 -500.000000 2000.000000
    endloop
  endfacet
  facet normal 0.000000 0.000000 1.000000
    outer loop
      vertex 2500.000000 2500.000000 2000.000000
      vertex -500.000000 2500.000000 2000.000000
      vertex 2000.000000 2000.000000 2000.000000
    endloop
  endfacet
endsolid Mesh
